<svg version="1.1" id="Layer_1" xmlns="http://www.w3.org/2000/svg" xmlns:xlink="http://www.w3.org/1999/xlink" x="0px" y="0px"
	 width="100%" viewBox="0 0 672 1024" enable-background="new 0 0 672 1024" xml:space="preserve">
<path fill="#000000" opacity="1.000000" stroke="none" 
	d="
M106.108414,727.876221 
	C102.312302,715.869568 95.319130,705.694153 91.432274,694.110535 
	C89.295547,687.742676 87.280983,681.456848 87.035515,674.724121 
	C86.882484,670.526855 86.209808,666.425171 84.927422,662.446716 
	C83.388214,657.671570 82.242538,652.874451 81.902962,647.818604 
	C81.481148,641.538452 78.510300,636.077515 73.679207,632.330322 
	C66.744545,626.951477 65.400276,619.417786 64.089844,611.679199 
	C63.757214,609.714783 63.700218,607.705383 63.426197,605.729187 
	C62.792717,601.160706 62.341690,596.989075 64.750511,592.332581 
	C68.816345,584.472839 65.456131,571.722290 58.504017,566.305847 
	C54.738819,563.372314 54.076221,560.490356 55.353363,555.965149 
	C57.805630,547.276123 60.258514,538.678284 64.977585,530.865662 
	C66.903618,527.677002 67.040085,523.863220 67.829391,520.293091 
	C69.053848,514.754761 70.352814,509.323639 74.025925,504.683014 
	C80.211761,496.867859 80.205902,487.293365 80.890106,478.020020 
	C81.274521,472.809967 82.211586,467.875275 84.285019,463.028839 
	C86.241570,458.455566 87.347443,453.526184 89.120667,448.864990 
	C92.882889,438.975342 99.154922,430.980286 107.579872,424.536743 
	C113.111801,420.305756 115.668015,414.022858 117.602905,407.609283 
	C124.878914,383.491547 130.763809,359.044891 133.845428,334.007568 
	C135.650909,319.338654 141.150360,306.448212 151.089005,295.471985 
	C152.085876,294.371033 153.458405,293.206299 153.704895,291.892578 
	C156.087372,279.194061 166.882065,272.181396 173.623581,262.465637 
	C175.855682,259.248749 179.655777,256.929260 182.770782,254.304474 
	C185.236664,252.226669 189.174942,250.090454 191.744049,255.437561 
	C193.010666,258.073792 195.554153,257.874695 198.273163,256.850037 
	C205.057098,254.293457 209.901093,249.200317 214.961288,244.454712 
	C220.201233,239.540588 225.814178,235.796844 233.217239,235.192337 
	C235.322159,235.020447 237.603561,234.432022 239.388382,233.349380 
	C248.752243,227.669373 259.253052,225.308731 269.488190,221.896439 
	C285.865448,216.436478 301.993225,209.898712 317.565094,202.436447 
	C336.596954,193.316086 354.320740,195.142014 371.787201,205.612595 
	C380.323853,210.730057 389.244385,215.109055 396.978638,221.709747 
	C404.012695,227.712936 413.282257,229.886505 422.153015,232.253601 
	C426.040253,233.290863 429.752716,234.519226 433.274506,236.549728 
	C440.524078,240.729568 448.266632,243.647339 456.427246,245.712677 
	C467.985596,248.637970 476.860992,255.772018 484.307953,264.889099 
	C495.159515,278.174408 503.105621,293.094055 509.669586,308.861389 
	C511.687195,313.707916 514.790833,317.187897 520.707031,318.566223 
	C527.682556,320.191345 530.731628,326.755493 532.567932,333.011139 
	C535.794922,344.004272 541.772461,353.693909 546.263977,364.074524 
	C547.978638,368.037445 550.722473,371.426666 553.990295,374.408386 
	C562.211487,381.909821 569.564453,390.407715 579.276489,396.176788 
	C579.418945,396.261414 579.586426,396.347748 579.671387,396.479095 
	C587.446045,408.501190 601.263245,414.096588 610.094116,424.871429 
	C619.670105,436.555511 626.587280,449.827148 631.089661,464.328247 
	C635.371643,478.119873 636.711853,492.357574 637.978882,506.629456 
	C638.975769,517.858459 641.039124,528.897461 640.318359,540.380005 
	C639.276367,556.981384 639.684570,573.670532 640.880798,590.316284 
	C642.268127,609.619812 637.181030,628.378723 635.644775,647.440063 
	C634.395935,662.935608 631.601074,678.136230 627.630432,693.132996 
	C625.581116,700.872681 623.632446,708.690186 615.708313,713.041748 
	C613.056091,714.498230 612.550781,717.457214 613.265259,720.140198 
	C616.164124,731.026550 610.008789,738.771912 603.946716,746.235413 
	C600.558716,750.406616 597.371155,754.339783 595.452820,759.514709 
	C591.680359,769.690979 583.372009,775.036011 573.396790,778.030396 
	C560.421570,781.925293 548.365601,780.066162 537.377625,771.930298 
	C533.023804,768.706482 528.822693,767.699463 524.700623,772.597717 
	C522.619507,775.070740 519.413635,775.241150 516.348877,775.052124 
	C509.429138,774.625122 504.806854,777.800232 502.438721,784.148315 
	C499.553162,791.883057 497.127075,799.337463 497.611237,808.213501 
	C498.535828,825.164185 492.518799,833.605286 476.039795,836.200134 
	C468.634827,837.366150 461.229645,838.350708 453.771576,839.155945 
	C441.498383,840.481079 431.815247,835.428406 422.655121,828.232544 
	C414.092560,821.506165 407.130341,813.149109 399.263519,805.716736 
	C393.912628,800.661316 389.514069,800.545410 384.064331,805.379578 
	C381.456451,807.692810 378.639984,809.802063 375.755768,811.765564 
	C371.066895,814.957397 367.332367,818.553711 366.463562,824.655701 
	C365.670044,830.229248 360.657074,830.772766 356.308594,831.973999 
	C341.286560,836.123535 325.575165,835.739868 310.433685,838.991028 
	C294.454559,842.421997 279.733063,838.581360 265.390533,831.906250 
	C262.921082,830.756958 262.054016,828.830994 262.054077,826.292114 
	C262.054169,821.903931 263.005646,817.729004 264.558685,813.627747 
	C270.049500,799.127441 261.597931,786.476562 246.110352,786.065918 
	C242.119263,785.960083 238.625076,784.975769 235.505630,782.388733 
	C232.429901,779.837952 229.089523,777.697021 225.396118,776.017578 
	C219.692749,773.424316 215.090546,769.346863 211.256256,764.383911 
	C203.963333,754.944214 194.758896,750.617188 182.792770,753.999084 
	C177.032730,755.627014 171.548676,754.935242 166.344315,752.130920 
	C160.822937,749.155884 155.120575,749.274048 149.381424,751.069214 
	C144.932648,752.460815 140.407791,753.817810 136.237442,755.848633 
	C126.855064,760.417603 120.261360,757.559570 114.054657,747.159607 
	C110.535240,741.262512 108.728577,734.598267 106.108414,727.876221 
M388.693146,550.500000 
	C388.707733,501.669128 388.727448,452.838287 388.714905,404.007416 
	C388.714478,402.366455 388.980804,400.261017 388.117737,399.159790 
	C382.408539,391.875153 376.036194,385.186951 368.890442,378.606873 
	C367.326874,382.039062 367.381287,385.003326 367.381775,387.960785 
	C367.395233,468.959015 367.408600,549.957275 367.418182,630.955505 
	C367.419464,641.788574 367.302399,652.622925 367.446167,663.453979 
	C367.494232,667.076904 366.280365,668.614014 362.547638,668.421936 
	C358.392609,668.208130 354.203003,668.181274 350.054596,668.460876 
	C345.927002,668.739136 344.571991,667.198059 344.582275,663.053101 
	C344.678375,624.229187 344.580811,585.404846 344.586090,546.580627 
	C344.595245,479.415436 344.643494,412.250244 344.639343,345.085052 
	C344.639221,343.023071 345.121399,340.725128 343.093262,339.048401 
	C340.421173,339.540283 338.834717,341.612274 336.956055,343.159668 
	C332.713409,346.654297 328.588135,350.291077 324.403717,353.856628 
	C305.003082,370.388245 285.605804,386.923737 266.186310,403.433136 
	C263.805115,405.457520 262.287445,407.612793 262.299927,411.049652 
	C262.413696,442.381866 262.353668,473.714691 262.396301,505.047272 
	C262.398621,506.740265 261.759033,508.800659 264.377472,510.120239 
	C275.840027,501.662048 287.454346,493.091858 299.068695,484.521637 
	C299.491058,484.881897 299.913391,485.242157 300.335754,485.602417 
	C300.335754,487.742584 300.335907,489.882782 300.335724,492.022949 
	C300.330231,548.355225 300.324799,604.687439 300.318298,661.019714 
	C300.318176,662.186279 300.250061,663.355774 300.310303,664.518921 
	C300.452026,667.254211 299.227386,668.438965 296.462494,668.394958 
	C291.297546,668.312744 286.125549,668.267273 280.965302,668.452209 
	C278.083923,668.555481 277.045013,667.282532 277.047760,664.639648 
	C277.050873,661.639954 276.983856,658.640198 276.983215,655.640503 
	C276.974731,615.808289 276.989319,575.976074 276.927094,536.143921 
	C276.923401,533.774292 277.703979,531.144348 275.779144,529.075684 
	C273.402588,528.898376 271.954071,530.452698 270.389435,531.600220 
	C251.851761,545.195862 233.373749,558.873047 214.798096,572.416382 
	C212.222305,574.294312 211.272797,576.422241 211.278625,579.556030 
	C211.342728,614.055054 211.285126,648.554321 211.287262,683.053528 
	C211.287659,689.620972 211.341537,689.644287 218.019684,689.645386 
	C266.018799,689.653198 314.017914,689.627502 362.016998,689.659424 
	C398.349121,689.683533 434.681305,689.741028 471.013153,689.871826 
	C477.754364,689.896057 477.804321,690.095703 477.031158,696.527710 
	C476.754669,698.827759 476.346283,701.143860 475.684937,703.359131 
	C474.362122,707.790100 475.028229,711.806702 477.184326,715.866089 
	C480.550751,722.204224 486.187561,726.082214 491.938904,729.718628 
	C494.826233,731.544128 496.942017,734.982178 500.818726,734.928528 
	C506.408203,734.851257 512.172974,736.003052 517.379272,732.690491 
	C519.136841,731.572266 521.302673,731.718445 523.239014,732.182495 
	C526.094910,732.866943 527.990967,731.682617 529.817749,729.716797 
	C532.530762,726.797363 534.545654,723.356750 534.597168,719.493652 
	C534.797058,704.509583 536.742249,689.574097 535.839661,674.566711 
	C535.677124,671.863586 534.750549,669.357910 533.459412,666.992004 
	C531.906860,664.146912 529.376587,663.029846 526.827637,664.985779 
	C521.174561,669.323547 516.279541,667.482666 511.354919,663.906799 
	C508.585419,661.895874 505.579285,661.477844 502.343658,662.525818 
	C498.859406,663.654358 495.412659,664.922424 491.881042,665.875732 
	C485.232330,667.670349 480.120514,670.651733 480.709442,678.709167 
	C480.754730,679.328796 480.498718,680.031250 479.353699,680.314270 
	C477.817352,674.016602 477.853699,667.612854 477.846619,661.220032 
	C477.797333,616.721008 477.746002,572.221924 477.756927,527.722900 
	C477.757721,524.398315 477.291046,521.780884 474.225189,519.577271 
	C455.556610,506.158875 437.049774,492.515472 418.449554,479.001495 
	C416.925720,477.894318 415.459259,475.661316 413.288483,476.828796 
	C411.224792,477.938690 411.939240,480.402771 411.933136,482.325256 
	C411.880280,498.980255 412.307281,515.648743 411.775604,532.287170 
	C411.120880,552.776306 411.734985,573.261719 411.704285,593.736694 
	C411.669067,617.217163 410.702911,640.707153 411.587860,664.188049 
	C411.699310,667.145203 410.682953,668.486450 407.603607,668.380310 
	C403.608765,668.242554 399.605042,668.370117 395.605164,668.367188 
	C388.719299,668.362061 388.689056,668.356812 388.687592,661.497803 
	C388.679871,624.831848 388.688538,588.165955 388.693146,550.500000 
z"/>
<path fill="#000000" opacity="1.000000" stroke="none" 
	d="
M456.310364,579.000000 
	C456.314484,606.995056 456.200104,634.491028 456.427979,661.984253 
	C456.470154,667.071106 454.917603,668.878845 449.882843,668.443909 
	C445.581787,668.072388 441.223724,668.306213 436.892120,668.364197 
	C434.320740,668.398560 433.332336,667.205322 433.401306,664.702942 
	C434.172638,636.722290 432.773804,608.749756 433.267303,580.752869 
	C433.598633,561.954468 433.307556,543.118591 433.636902,524.300903 
	C433.673553,522.207703 433.129486,520.001526 434.641724,517.473877 
	C441.931610,522.196106 448.909393,527.153564 455.419312,532.740295 
	C456.910980,534.020447 456.302795,536.208496 456.306335,538.007202 
	C456.332947,551.504761 456.314331,565.002380 456.310364,579.000000 
z"/>
<path fill="#000000" opacity="1.000000" stroke="none" 
	d="
M255.395325,620.000122 
	C255.395355,634.657959 255.282852,648.817261 255.468842,662.972717 
	C255.522003,667.018616 254.329330,668.768616 250.099228,668.447388 
	C246.290192,668.158203 242.423355,668.148071 238.615814,668.446289 
	C234.106827,668.799438 232.539078,667.225708 232.588013,662.558472 
	C232.808075,641.573792 233.371262,620.553955 232.404800,599.611755 
	C231.914703,588.992249 234.797073,581.784851 244.094055,576.898376 
	C247.713394,574.996033 250.332443,571.427124 255.396149,569.895264 
	C255.396149,586.720947 255.396149,603.110535 255.395325,620.000122 
z"/>
</svg>